<svg id="图层_1" xmlns="http://www.w3.org/2000/svg" xmlns:xlink="http://www.w3.org/1999/xlink" width="200" height="200" viewBox="0 0 200 200" enable-background="new 0 0 200 200"><circle fill="#f8a200" cx="100" cy="100" r="50.25"/><path fill="#fff" d="M121.719 89.141h-7.24v-8.688c0-.8-.648-1.448-1.448-1.448h-34.75c-.8.0-1.448.648-1.448 1.448v24.615c0 .8.648 1.448 1.448 1.448h5.792v8.688c-.002.797.642 1.446 1.439 1.448.003.0.006.0.009.0.35.0.689-.127.953-.358l11.175-9.778h15.383c.8.0 1.448-.648 1.448-1.448V92.036h5.792v18.823h-4.344c-.8.0-1.448.648-1.448 1.448v4.426l-7.846-5.603c-.245-.176-.539-.271-.841-.271h-8.688c-.8.0-1.448.648-1.448 1.448s.648 1.448 1.448 1.448h8.224l9.758 6.969c.245.177.539.272.841.271.799-.001 1.447-.649 1.448-1.448v-5.792h4.344c.8.0 1.448-.648 1.448-1.448V90.589C123.167 89.789 122.518 89.141 121.719 89.141z"/></svg>