<?xml version="1.0" encoding="utf-8"?>
<!-- Generator: Adobe Illustrator 17.0.0, SVG Export Plug-In . SVG Version: 6.00 Build 0)  -->
<!DOCTYPE svg PUBLIC "-//W3C//DTD SVG 1.1//EN" "http://www.w3.org/Graphics/SVG/1.1/DTD/svg11.dtd">
<svg version="1.1" id="图层_1" xmlns="http://www.w3.org/2000/svg" xmlns:xlink="http://www.w3.org/1999/xlink" x="0px" y="0px"
	 width="22px" height="22px" viewBox="321.271 103.375 22 22" enable-background="new 321.271 103.375 22 22" xml:space="preserve">
<path fill="#999999" d="M332.271,103.375c6.075,0,11,4.925,11,11s-4.925,11-11,11s-11-4.925-11-11S326.195,103.375,332.271,103.375z
	 M335.918,115.292h-7.294c0.203,4.679,1.93,8.25,3.647,8.25C333.988,123.542,335.715,119.971,335.918,115.292z M326.788,115.292
	l-3.639,0c0.336,3.385,2.514,6.229,5.518,7.514C327.587,120.964,326.904,118.287,326.788,115.292L326.788,115.292z M341.392,115.292
	h-3.639c-0.116,2.996-0.799,5.672-1.879,7.514C338.877,121.521,341.055,118.677,341.392,115.292L341.392,115.292z M328.668,105.944
	l-0.102,0.044c-2.952,1.305-5.085,4.123-5.417,7.47h3.639C326.905,110.463,327.588,107.786,328.668,105.944z M332.271,105.208
	l-0.069,0.002c-1.694,0.093-3.378,3.632-3.578,8.248h7.294C335.715,108.78,333.988,105.208,332.271,105.208z M335.874,105.943
	l0.067,0.117c1.041,1.837,1.698,4.465,1.811,7.398h3.639C341.055,110.073,338.877,107.229,335.874,105.943L335.874,105.943z"/>
</svg>
